# xmcd
#
# Track frame offsets: 
#        150
#        22462
#        47585
#        72817
#        88760
#        111917
#        133517
#        148947
#        174000
#        187107
#
# Disc length: 2847 seconds
#
# Revision: 2
# Processed by: cddbd v1.5.2PL0 Copyright (c) Steve Scherf et al.
# Submitted via: ExactAudioCopy v0.99pb5
#
DISCID=910b1d0a
DTITLE=Boys II Men - Evolución
DYEAR=1997
DGENRE=R&B
TTITLE0=4 Estaciones De Soledad
TTITLE1=A Mi Me Va Bien
TTITLE2=Te Doy Mi Amor
TTITLE3=La Chica De La Revista
TTITLE4=Una Canción Para Mamá
TTITLE5=Yo Te Voy A Amar
TTITLE6=No Dejemos Que Muera El Amor
TTITLE7=Me Rindo Ante Ti
TTITLE8=Yesterday
TTITLE9=Al Final Del Camino
EXTD=
EXTT0=
EXTT1=
EXTT2=
EXTT3=
EXTT4=
EXTT5=
EXTT6=
EXTT7=
EXTT8=
EXTT9=
PLAYORDER=
